<svg xmlns="http://www.w3.org/2000/svg" width="154.585" height="28" viewBox="0 0 154.585 28">
  <g id="Group_3" data-name="Group 3" transform="translate(-79.11 -79.801)">
    <g id="Group_2" data-name="Group 2" transform="translate(115.847 81.713)">
      <g id="Group_1" data-name="Group 1" transform="translate(0 22.748)">
        <path id="Path_1" data-name="Path 1" d="M163.42,139.223v-2.716h1.262c.662,0,1.057.3,1.057.89a.813.813,0,0,1-.536.783l.624,1.042h-.707l-.548-.939h-.51v.939Zm1.179-1.445c.346,0,.495-.129.495-.38s-.148-.384-.495-.384h-.536v.765Z" transform="translate(-163.42 -136.459)"/>
        <path id="Path_2" data-name="Path 2" d="M196.917,139.222v-2.715h2.054v.506H197.56v.593H198.8v.505H197.56v.6H199v.509Z" transform="translate(-182.321 -136.459)"/>
        <path id="Path_3" data-name="Path 3" d="M230.342,138.326c.031.312.312.411.6.411.267,0,.491-.107.491-.331,0-.171-.11-.251-.407-.3l-.479-.088c-.426-.076-.753-.285-.753-.768,0-.513.464-.848,1.084-.848.7,0,1.1.308,1.153.833h-.62c-.023-.236-.229-.361-.525-.361-.27,0-.449.133-.449.327s.133.24.392.289l.517.1c.471.084.734.327.734.772,0,.525-.487.848-1.115.848-.7,0-1.2-.285-1.255-.882Z" transform="translate(-200.823 -136.399)"/>
        <path id="Path_4" data-name="Path 4" d="M263.8,139.208a1.4,1.4,0,1,1,1.349-1.4A1.3,1.3,0,0,1,263.8,139.208Zm0-2.3c-.453,0-.681.342-.681.9s.228.9.681.9.68-.342.68-.9S264.253,136.906,263.8,136.906Z" transform="translate(-219.299 -136.399)"/>
        <path id="Path_5" data-name="Path 5" d="M297.1,139.265a1.066,1.066,0,0,1-1.213-1.137V136.5h.661v1.6c0,.388.149.643.552.643s.556-.254.556-.643v-1.6h.658v1.628A1.061,1.061,0,0,1,297.1,139.265Z" transform="translate(-238.166 -136.457)"/>
        <path id="Path_6" data-name="Path 6" d="M329.03,139.218V136.5h1.262c.662,0,1.057.3,1.057.89a.814.814,0,0,1-.536.783l.624,1.042h-.707l-.548-.939h-.509v.939Zm1.179-1.445c.346,0,.495-.129.495-.38s-.149-.384-.495-.384h-.536v.765Z" transform="translate(-256.868 -136.456)"/>
        <path id="Path_7" data-name="Path 7" d="M363.365,138.7a.5.5,0,0,0,.54-.449h.639a1.1,1.1,0,0,1-1.18.955,1.405,1.405,0,0,1,0-2.807,1.1,1.1,0,0,1,1.18.954h-.639a.5.5,0,0,0-.54-.449c-.43,0-.661.335-.661.9S362.935,138.7,363.365,138.7Z" transform="translate(-275.491 -136.397)"/>
        <path id="Path_8" data-name="Path 8" d="M395.649,139.217V136.5H397.7v.506h-1.411v.593h1.244v.505h-1.244v.6h1.437v.509Z" transform="translate(-294.458 -136.455)"/>
        <path id="Path_9" data-name="Path 9" d="M429.074,138.32c.031.312.312.411.6.411.266,0,.491-.106.491-.331,0-.171-.11-.251-.407-.3l-.479-.088c-.426-.076-.753-.285-.753-.768,0-.513.464-.848,1.084-.848.7,0,1.1.308,1.153.833h-.62c-.023-.236-.229-.361-.525-.361-.27,0-.449.133-.449.327s.133.24.392.289l.517.1c.471.084.734.327.734.772,0,.525-.487.848-1.115.848-.7,0-1.2-.285-1.255-.882Z" transform="translate(-312.96 -136.396)"/>
      </g>
      <path id="Path_10" data-name="Path 10" d="M170.5,84.19l-7.077,17.365H164.9l1.846-4.627h9.076l1.846,4.627h1.556L172.151,84.19Zm-3.234,11.466,3.988-9.957h.073l3.988,9.957Z" transform="translate(-163.42 -84.19)"/>
      <path id="Path_11" data-name="Path 11" d="M220.409,84.19h-5.862v17.365h5.862c4.913,0,8.342-3.454,8.342-8.683C228.752,87.668,225.322,84.19,220.409,84.19Zm0,16.052h-4.4V85.5h4.4c4.354,0,6.81,2.992,6.81,7.369C227.219,97.275,224.763,100.242,220.409,100.242Z" transform="translate(-192.27 -84.19)"/>
      <path id="Path_12" data-name="Path 12" d="M264.855,100.145h-.048L258.361,84.19h-1.508l7.1,17.366h1.7l7.126-17.366H271.3Z" transform="translate(-216.141 -84.19)"/>
      <path id="Path_13" data-name="Path 13" d="M309.443,101.555H320.7v-1.314h-9.8V93.553h8.78V92.24H310.9V85.5h9.85V84.19H309.443Z" transform="translate(-245.815 -84.19)"/>
      <path id="Path_14" data-name="Path 14" d="M366.313,98.929h-.049l-9.9-14.739h-1.9v17.366H355.9V85.99h.048l10.41,15.566h1.386V84.19h-1.435Z" transform="translate(-271.221 -84.19)"/>
      <path id="Path_15" data-name="Path 15" d="M400.108,84.19V85.5h6.615v16.052h1.459V85.5h6.64V84.19Z" transform="translate(-296.975 -84.19)"/>
    </g>
    <path id="Path_16" data-name="Path 16" d="M107.049,93.147l-6.686-10.523a.828.828,0,0,0-1.142-.255h0l4.882,7.87L93.443,80.03a.826.826,0,0,0-1.163.02l-.006.006,10.944,10.649L88.606,81.146a.826.826,0,0,0-1.142.236l0,0,15,9.9L85.139,83.3a.826.826,0,0,0-1.1.406h0l17.842,8.106-19.225-5.74a.826.826,0,0,0-1.028.555v0l19.912,5.945L80.955,89.667a.826.826,0,0,0-.933.7v0l21.344,3.015H79.524a.414.414,0,0,0-.414.414h0a.414.414,0,0,0,.414.414h21.842L80.022,97.23v0a.825.825,0,0,0,.933.7l20.588-2.908L81.631,100.97v0a.826.826,0,0,0,1.028.555l19.225-5.74-17.842,8.106h0a.826.826,0,0,0,1.1.406l17.32-7.987-15,9.9,0,0a.826.826,0,0,0,1.142.236L103.217,96.9,92.274,107.544l.006.006a.826.826,0,0,0,1.163.02L104.1,97.361l-4.882,7.87h0a.826.826,0,0,0,1.14-.254l6.687-10.524h3.378V93.147Z" transform="translate(0 0)"/>
  </g>
</svg>
