<svg xmlns="http://www.w3.org/2000/svg" width="32.469" height="32" viewBox="0 0 32.469 32">
  <path id="Path_3156" data-name="Path 3156" d="M154.511,167.235v1.023H136.02v-1.023a2.071,2.071,0,0,1,2.071-2.071h14.35A2.071,2.071,0,0,1,154.511,167.235Zm2.367-30.37,9.059,9.059a2.07,2.07,0,0,1,0,2.926l-.717.719-1.636-.545-3.817,3.813,8.72,8.718-.715.715a2.071,2.071,0,0,1-2.928,0l-7.254-7.254-3.7,3.7.437,1.744-.717.717a2.07,2.07,0,0,1-2.926,0l-9.063-9.055a2.071,2.071,0,0,1,0-2.928l.717-.715,1.74.433,9.708-9.708-.543-1.634.707-.707A2.07,2.07,0,0,1,156.878,136.865Zm-.374,3.984-10.9,10.9,5.436,5.448,10.909-10.9Z" transform="translate(-136.02 -136.258)"/>
</svg>
