<svg xmlns="http://www.w3.org/2000/svg" width="32" height="32" viewBox="0 0 32 32">
  <path id="Path_3156" data-name="Path 3156" d="M154.244,167.235v1.023H136.02v-1.023a2.056,2.056,0,0,1,2.041-2.071H152.2A2.056,2.056,0,0,1,154.244,167.235Zm2.333-30.37,8.928,9.059a2.092,2.092,0,0,1,0,2.926l-.706.719-1.612-.545-3.761,3.813,8.594,8.718-.7.715a2.02,2.02,0,0,1-2.886,0l-7.149-7.254-3.645,3.7.431,1.744-.706.717a2.019,2.019,0,0,1-2.884,0l-8.932-9.055a2.092,2.092,0,0,1,0-2.928l.706-.715,1.715.433,9.568-9.708L153,137.569l.7-.707A2.019,2.019,0,0,1,156.576,136.865Zm-.368,3.984-10.739,10.9,5.358,5.448,10.751-10.9Z" transform="translate(-136.02 -136.258)" fill="#fff"/>
</svg>
