<svg xmlns="http://www.w3.org/2000/svg" width="16" height="16.002" viewBox="0 0 16 16.002">
  <path id="Path_5581" data-name="Path 5581" d="M151.323,202.548l-2.13-2.127a1.376,1.376,0,0,0-1.952,0l-2.294,2.29a1.381,1.381,0,0,0,0,1.956l1.792,1.794a8.222,8.222,0,0,1-4.272,4.278l-1.792-1.794a1.376,1.376,0,0,0-1.952,0l-2.3,2.29a1.381,1.381,0,0,0,0,1.956l2.127,2.128a2.4,2.4,0,0,0,1.685.7,2.23,2.23,0,0,0,.384-.032,14.521,14.521,0,0,0,11.365-11.367A2.383,2.383,0,0,0,151.323,202.548Zm-.752,1.831a13.1,13.1,0,0,1-10.186,10.188.945.945,0,0,1-.816-.264l-2.09-2.09,2.217-2.219,2.4,2.4.018.017.432-.16a9.624,9.624,0,0,0,5.714-5.716l.16-.432L146,203.691l2.217-2.219,2.09,2.09A.94.94,0,0,1,150.572,204.379Z" transform="translate(-136.021 -200.015)" fill="#67687d"/>
</svg>
