<svg xmlns="http://www.w3.org/2000/svg" width="47.994" height="47.985" viewBox="0 0 47.994 47.985">
  <g id="Group_7003" data-name="Group 7003" transform="translate(-864 -288.015)">
    <path id="Path_7681" data-name="Path 7681" d="M889.006,336a5.779,5.779,0,0,1-4.1-1.693l-.019-.019-20.6-20.572a1,1,0,0,1-.293-.708V289.015a1,1,0,0,1,1-1h23.994a1,1,0,0,1,.707.293l20.611,20.61a5.813,5.813,0,0,1,0,8.179v0l-17.2,17.2A5.778,5.778,0,0,1,889.006,336Zm-2.672-3.1a3.8,3.8,0,0,0,5.359-.016l17.2-17.2a3.806,3.806,0,0,0,0-5.354L888.58,290.015H866v22.579l20.317,20.294Zm23.27-16.513h0Z" fill="#191919"/>
    <path id="Path_7682" data-name="Path 7682" d="M877.027,302.985a1.994,1.994,0,0,1-2-1.973,1.953,1.953,0,0,1,1.95-1.973h.047a1.973,1.973,0,1,1,0,3.946Z" fill="#191919"/>
  </g>
</svg>
