<svg xmlns="http://www.w3.org/2000/svg" width="115.009" height="40" viewBox="0 0 115.009 40">
  <g id="Group_5516" data-name="Group 5516" transform="translate(-23.998 -14)">
    <path id="Shape_722" data-name="Shape 722" d="M1628.8,1128.874c-.926-.987-.373-2.952.1-5.17l1.618-7.533h6.649l1.2-5.608h-6.653l1.18-5.6h-6.269l-4.107,19.254c-.619,2.877-.851,5.126.409,7.55,1.172,2.253,5.173,4.4,10.24,3.044l1.12-5.2c-3.434.421-4.814-.023-5.491-.736m-53.081-23.908-2.992,13.905h-11l2.983-13.905h-6.326l-6.4,29.848h6.322l2.208-10.342h11.006l-2.216,10.342h6.27l6.4-29.848Zm36.116,7.706c-2.195,1.816-3.442,4.192-4.248,7.943l-3.047,14.2h6.274l2.528-11.775c.6-2.753,1.054-4.477,2.1-5.537,1.436-1.454,3.517-1.535,6.018-1.331l1.206-5.608a12.082,12.082,0,0,0-10.829,2.109m48.962-2.109h-19.578l-1.2,5.608h11.36l-14.208,13.251-1.155,5.392h19.58l1.208-5.6h-11.426l14.278-13.312Zm-66.084-.446a12.9,12.9,0,0,0-7.865,2.865c-6.418,4.991-9.607,22.272,4.18,22.272a17.951,17.951,0,0,0,10.309-3.183l-2.494-4.173c-2.088,1.589-12.6,5.048-11.49-3.393h16.428c.007-.016,2.1-6.765-.916-10.846-2.565-3.48-7.29-3.542-8.153-3.542m4.079,9.255h-10.056a6.308,6.308,0,0,1,6.456-4.281,3.634,3.634,0,0,1,3.6,4.281m63.64,9.464c.031,0,.023,0-.018,0a4.247,4.247,0,0,0-3.945,3.236,3.1,3.1,0,0,0-.074.679v.005a2.484,2.484,0,0,0,2.624,2.525.014.014,0,0,0,.012,0,4.266,4.266,0,0,0,3.95-3.238,3.41,3.41,0,0,0,.071-.668,2.472,2.472,0,0,0-2.619-2.534m2.1,3.114a3.826,3.826,0,0,1-3.506,2.885h0a2.028,2.028,0,0,1-2.181-2.084,2.737,2.737,0,0,1,.067-.59,3.815,3.815,0,0,1,3.482-2.883,2.038,2.038,0,0,1,2.21,2.092,2.868,2.868,0,0,1-.068.58m-2.355-1.435H1660.8l-.663,3.085h.689l.211-1h.546l.446,1h.811l-.528-1.1a1.272,1.272,0,0,0,.881-.964c.135-.642-.26-1.017-1-1.017m.3,1.056a.6.6,0,0,1-.634.45h-.682l.192-.9h.669c.345,0,.518.154.456.455" transform="translate(-1526.05 -1090.966)"/>
    <path id="Rectangle_719_copy_2" data-name="Rectangle 719 copy 2" d="M1550.973,1142H1662.1l-.976,3.9H1550Z" transform="translate(-1526 -1091.899)" fill="#ffd100"/>
  </g>
</svg>
