<svg xmlns="http://www.w3.org/2000/svg" width="20" height="20" viewBox="0 0 20 20">
  <g id="Group_6976" data-name="Group 6976" transform="translate(1)">
    <g id="Group_6977" data-name="Group 6977">
      <g id="Group_6976-2" data-name="Group 6976">
        <path id="Path_7625" data-name="Path 7625" d="M15,0H5A5.014,5.014,0,0,0,0,5V15a5.015,5.015,0,0,0,5,5H15a5.015,5.015,0,0,0,5-5V5A5.014,5.014,0,0,0,15,0ZM10,14.167A4.167,4.167,0,1,1,14.167,10,4.167,4.167,0,0,1,10,14.167Zm5.417-8.333a1.25,1.25,0,1,1,1.25-1.25A1.25,1.25,0,0,1,15.417,5.833Z" transform="translate(-1)" fill="#b5b6c8"/>
      </g>
    </g>
  </g>
</svg>
