<svg xmlns="http://www.w3.org/2000/svg" width="48" height="37.371" viewBox="0 0 48 37.371">
  <g id="Group_7020" data-name="Group 7020" transform="translate(-1056.022 -298.439)">
    <path id="Path_7686" data-name="Path 7686" d="M1097.838,305.626h-.262l.031.061Z" fill="#191919"/>
    <path id="Path_7687" data-name="Path 7687" d="M1062.424,305.626h-.632l.559.148Z" fill="#191919"/>
    <path id="Path_7688" data-name="Path 7688" d="M1095.375,305.626h-30.75l-1.016,2.043h32.782Z" fill="#191919"/>
    <path id="Path_7689" data-name="Path 7689" d="M1067.2,300.439h25.59l2.581,5.188h2.2L1094,298.439h-28l-3.575,7.188h2.2Z" fill="#191919"/>
    <path id="Path_7690" data-name="Path 7690" d="M1098.367,307.669h-.441l-.343.091-.023-.091h-1.169l.8,1.616,3.741.192-2.2-1.522-.219-.441-.148.039Z" fill="#191919"/>
    <path id="Path_7691" data-name="Path 7691" d="M1061.524,329h-3.539V313.934l-1.083-.505.863-1.851,1.049.489,3.975-2.747.821-1.65h-1.539l-.023.091-.343-.091h-.068v-.018l-.193-.051-.176.354-5.244,3.625V331h7.467l0-4.609h-1.963Z" fill="#191919"/>
    <path id="Path_7692" data-name="Path 7692" d="M1063.672,324.391v2h17.156a13.546,13.546,0,0,1-.918-2Z" fill="#191919"/>
    <path id="Path_7693" data-name="Path 7693" d="M1098.367,307.669v-.117l-.441.117Z" fill="#191919"/>
    <path id="Path_7694" data-name="Path 7694" d="M1062.539,305.824l-.469,1.845h1.539l1.016-2.043h-2.2l-.073.148Z" fill="#191919"/>
    <path id="Path_7695" data-name="Path 7695" d="M1096.391,307.669h1.169l-.469-1.845.516-.136-.031-.061h-2.2Z" fill="#191919"/>
    <path id="Path_7696" data-name="Path 7696" d="M1061.635,307.669h.068l-.068-.018Z" fill="#191919"/>
    <path id="Path_7697" data-name="Path 7697" d="M1098.367,307.216l.148.3,5.067-1.34-.493-1.936-5.25,1.388h.529Z" fill="#191919"/>
    <path id="Path_7698" data-name="Path 7698" d="M1098.367,307.216v-1.589h-.529l-.232.061Z" fill="#191919"/>
    <path id="Path_7699" data-name="Path 7699" d="M1098.367,307.552l.148-.039-.148-.3Z" fill="#191919"/>
    <path id="Path_7700" data-name="Path 7700" d="M1097.926,307.669h-.366l.023.091Z" fill="#191919"/>
    <path id="Path_7701" data-name="Path 7701" d="M1098.367,307.552v-.337l-.76-1.528-.516.136.469,1.845h.366Z" fill="#191919"/>
    <path id="Path_7702" data-name="Path 7702" d="M1061.635,305.626h.157l-5.249-1.388-.493,1.936,5.392,1.426.193-.387Z" fill="#191919"/>
    <path id="Path_7703" data-name="Path 7703" d="M1061.635,307.213l.715-1.438-.559-.148h-.157Z" fill="#191919"/>
    <path id="Path_7704" data-name="Path 7704" d="M1061.635,307.213l-.193.387.193.051Z" fill="#191919"/>
    <path id="Path_7705" data-name="Path 7705" d="M1062.046,307.76l.023-.091h-.366Z" fill="#191919"/>
    <path id="Path_7706" data-name="Path 7706" d="M1062.35,305.774l-.715,1.438v.438l.068.018h.366l.469-1.845Z" fill="#191919"/>
    <rect id="Rectangle_9766" data-name="Rectangle 9766" width="1.49" height="2" transform="translate(1060.031 324.391)" fill="#191919"/>
    <path id="Path_7707" data-name="Path 7707" d="M1061.52,324.391l0,2h2.15v-2Z" fill="#191919"/>
    <path id="Path_7708" data-name="Path 7708" d="M1069.687,315.957,1069.01,318h10.213v-2.043Z" fill="#191919"/>
    <path id="Path_7709" data-name="Path 7709" d="M1067.012,315.893l-8.2-3.827-.828.572v1.295l8.164,3.811Z" fill="#191919"/>
    <path id="Path_7710" data-name="Path 7710" d="M1058.813,312.067l-1.049-.489-.863,1.851,1.083.505v-1.295Z" fill="#191919"/>
    <path id="Path_7711" data-name="Path 7711" d="M1093.01,335.81a1,1,0,0,1-.447-.106c-.432-.216-10.565-5.38-10.565-13.421v-8.769a1,1,0,0,1,.949-1l10.012-.514c.033,0,.068,0,.1,0l10.014.514a1,1,0,0,1,.948,1v8.769c0,8.041-10.134,13.205-10.566,13.421A1,1,0,0,1,1093.01,335.81ZM1084,314.464v7.819c0,5.952,7.135,10.34,9.013,11.391,1.876-1.053,9.015-5.452,9.015-11.391v-7.819L1093.01,314Z" fill="#191919"/>
  </g>
</svg>
