<svg xmlns="http://www.w3.org/2000/svg" width="16" height="12.732" viewBox="0 0 16 12.732">
  <path id="Path_6592" data-name="Path 6592" d="M40.071,202.181a.889.889,0,0,1,.889-.889H55.173a.889.889,0,0,1,.889.889v10.066a1.777,1.777,0,0,1-1.777,1.777H41.839a1.777,1.777,0,0,1-1.777-1.777v-9.778a.836.836,0,0,1,.009-.124Zm1.768,1.976v8.089H54.285v-8.089l-4.337,4.337a2.667,2.667,0,0,1-3.771,0Zm1.4-1.117h9.65l-4.2,4.2a.887.887,0,0,1-1.256,0Z" transform="translate(-40.062 -201.292)" fill="#67687d" fill-rule="evenodd"/>
</svg>
