<svg xmlns="http://www.w3.org/2000/svg" width="48" height="42.157" viewBox="0 0 48 42.157">
  <g id="Group_7004" data-name="Group 7004" transform="translate(-960 -288)">
    <g id="Group_7011" data-name="Group 7011">
      <g id="Group_7009" data-name="Group 7009">
        <g id="Group_7004-2" data-name="Group 7004">
          <path id="Stroke-1" d="M963.676,292.823h19.5" fill="#191919" fill-rule="evenodd"/>
          <rect id="Rectangle_9750" data-name="Rectangle 9750" width="19.5" height="2" transform="translate(963.676 291.823)" fill="#191919"/>
        </g>
        <g id="Group-12">
          <path id="Path_7683" data-name="Path 7683" d="M986.853,306.209h-4.976l0-2.444h-16.9l0,2.444H960V295.19l2.938-1.994,2.633-5.2h15.708l2.634,5.2,2.94,1.995Zm-2.978-2h.978V296.25l-2.491-1.689L980.051,290H966.8l-2.311,4.561L962,296.25v7.959h.972l0-2.444h20.9Z" fill="#191919"/>
          <g id="Group_7005" data-name="Group 7005">
            <path id="Stroke-4" d="M982.794,292.9l3.241-.841" fill="#191919" fill-rule="evenodd"/>
            <rect id="Rectangle_9751" data-name="Rectangle 9751" width="3.349" height="2" transform="matrix(0.968, -0.251, 0.251, 0.968, 982.543, 291.932)" fill="#191919"/>
          </g>
          <g id="Group_7006" data-name="Group 7006">
            <path id="Stroke-6" d="M963.858,292.9l-3.241-.841" fill="#191919" fill-rule="evenodd"/>
            <rect id="Rectangle_9752" data-name="Rectangle 9752" width="2" height="3.348" transform="matrix(0.251, -0.968, 0.968, 0.251, 960.366, 293.026)" fill="#191919"/>
          </g>
          <g id="Group_7007" data-name="Group 7007">
            <path id="Stroke-8" d="M964.6,302.765h-1.968" fill="#191919" fill-rule="evenodd"/>
            <rect id="Rectangle_9753" data-name="Rectangle 9753" width="1.968" height="2" transform="translate(962.635 301.765)" fill="#191919"/>
          </g>
          <g id="Group_7008" data-name="Group 7008">
            <path id="Stroke-10" d="M982.2,302.765h2" fill="#191919" fill-rule="evenodd"/>
            <rect id="Rectangle_9754" data-name="Rectangle 9754" width="2.001" height="2" transform="translate(982.198 301.765)" fill="#191919"/>
          </g>
        </g>
        <path id="Fill-13" d="M981.264,297.225l.332,1.716,5.021-2.247-.642-1.576Z" fill="#191919" fill-rule="evenodd"/>
        <path id="Fill-14" d="M979.016,297.176h-10.8l-.338,2h11.47Z" fill="#191919" fill-rule="evenodd"/>
        <path id="Fill-15" d="M960.617,296.7l5.02,2.243.333-1.718-4.707-2.1Z" fill="#191919" fill-rule="evenodd"/>
      </g>
      <g id="Group_7010" data-name="Group 7010">
        <rect id="Rectangle_9755" data-name="Rectangle 9755" width="19" height="2" transform="translate(989 292.104)" fill="#191919"/>
        <rect id="Rectangle_9756" data-name="Rectangle 9756" width="19" height="2" transform="translate(989 296.104)" fill="#191919"/>
        <rect id="Rectangle_9757" data-name="Rectangle 9757" width="10" height="2" transform="translate(989 300.104)" fill="#191919"/>
      </g>
    </g>
    <g id="Group_7019" data-name="Group 7019">
      <g id="Group_7017" data-name="Group 7017">
        <g id="Group_7012" data-name="Group 7012">
          <path id="Stroke-1-2" data-name="Stroke-1" d="M963.676,316.771h19.5" fill="#191919" fill-rule="evenodd"/>
          <rect id="Rectangle_9758" data-name="Rectangle 9758" width="19.5" height="2" transform="translate(963.676 315.771)" fill="#191919"/>
        </g>
        <g id="Group-12-2" data-name="Group-12">
          <path id="Path_7684" data-name="Path 7684" d="M986.853,330.157h-4.976l0-2.445h-16.9l0,2.445H960V319.138l2.938-1.994,2.633-5.2h15.708l2.634,5.2,2.94,1.995Zm-2.978-2h.978V320.2l-2.491-1.689-2.311-4.561H966.8l-2.311,4.561L962,320.2v7.959h.972l0-2.445h20.9Z" fill="#191919"/>
          <g id="Group_7013" data-name="Group 7013">
            <path id="Stroke-4-2" data-name="Stroke-4" d="M982.794,316.848l3.241-.842" fill="#191919" fill-rule="evenodd"/>
            <rect id="Rectangle_9759" data-name="Rectangle 9759" width="3.349" height="2" transform="matrix(0.968, -0.251, 0.251, 0.968, 982.543, 315.88)" fill="#191919"/>
          </g>
          <g id="Group_7014" data-name="Group 7014">
            <path id="Stroke-6-2" data-name="Stroke-6" d="M963.858,316.848l-3.241-.842" fill="#191919" fill-rule="evenodd"/>
            <rect id="Rectangle_9760" data-name="Rectangle 9760" width="2" height="3.348" transform="matrix(0.251, -0.968, 0.968, 0.251, 960.366, 316.974)" fill="#191919"/>
          </g>
          <g id="Group_7015" data-name="Group 7015">
            <path id="Stroke-8-2" data-name="Stroke-8" d="M964.6,326.712h-1.968" fill="#191919" fill-rule="evenodd"/>
            <rect id="Rectangle_9761" data-name="Rectangle 9761" width="1.968" height="2" transform="translate(962.635 325.712)" fill="#191919"/>
          </g>
          <g id="Group_7016" data-name="Group 7016">
            <path id="Stroke-10-2" data-name="Stroke-10" d="M982.2,326.712h2" fill="#191919" fill-rule="evenodd"/>
            <rect id="Rectangle_9762" data-name="Rectangle 9762" width="2.001" height="2" transform="translate(982.198 325.712)" fill="#191919"/>
          </g>
        </g>
        <path id="Fill-13-2" data-name="Fill-13" d="M981.264,321.173l.332,1.716,5.021-2.247-.642-1.577Z" fill="#191919" fill-rule="evenodd"/>
        <path id="Fill-14-2" data-name="Fill-14" d="M979.016,321.124h-10.8l-.338,2h11.47Z" fill="#191919" fill-rule="evenodd"/>
        <path id="Fill-15-2" data-name="Fill-15" d="M960.617,320.646l5.02,2.243.333-1.718-4.707-2.106Z" fill="#191919" fill-rule="evenodd"/>
      </g>
      <g id="Group_7018" data-name="Group 7018">
        <rect id="Rectangle_9763" data-name="Rectangle 9763" width="19" height="2" transform="translate(989 316.052)" fill="#191919"/>
        <rect id="Rectangle_9764" data-name="Rectangle 9764" width="19" height="2" transform="translate(989 320.052)" fill="#191919"/>
        <rect id="Rectangle_9765" data-name="Rectangle 9765" width="10" height="2" transform="translate(989 324.052)" fill="#191919"/>
      </g>
    </g>
  </g>
</svg>
