<svg id="Group_6168" data-name="Group 6168" xmlns="http://www.w3.org/2000/svg" width="99.364" height="40" viewBox="0 0 99.364 40">
  <path id="Path_238" data-name="Path 238" d="M70.336,10.77l-5.458,8.224H64.8c-.449-.523-2.841-3.589-2.841-3.589A29.19,29.19,0,0,1,51.944,20.34L56.355,26.1v.075c-.673.972-9.57,14.131-9.57,14.131H46.71V21.387a60.331,60.331,0,0,1-8.822.6H35.047v7.551s-.075.075-.075,0a9.925,9.925,0,0,0-1.57-2.542c-3.738-3.963-16.6-5.383-18.467-7.477a2.285,2.285,0,0,1-.523-1.5c0-1.72,1.047-2.766,3.888-2.841,2.093-.075,3.738.9,4.187,4.86H33.925a9.2,9.2,0,0,0-.15-1.5c-.6-5.832-3.589-9.346-14.729-9.346-6.879,0-11.514,1.2-14.131,3.813a8.853,8.853,0,0,0-2.467,6.579A8.417,8.417,0,0,0,4.393,25.35c1.645,1.72,5.234,2.991,8.822,4.037C17.7,30.733,22.187,31.7,23.009,32.9a2.819,2.819,0,0,1,.523,1.57c0,2.617-2.617,3.364-5.084,3.364a4.513,4.513,0,0,1-3.439-1.271,6.647,6.647,0,0,1-1.2-4.037L2,32.452c.15,3.589.523,6.28,2.766,8.224s6.28,3.14,13.308,3.14c10.093,0,15.178-2.766,16.9-7.178a.073.073,0,0,1,.075.075V42.92H57.626l6.43-9.2h.075c.523.748,6.131,9.2,6.131,9.2H94.336V20.041a.073.073,0,0,1,.075-.075h6.953v-9.2ZM82.748,40.452h0c-.075,0-10.168-13.981-10.168-13.981V26.4c.374-.523,4.411-6.131,4.411-6.206l.075-.075h5.682V40.452Z" transform="translate(-2 -3.817)" fill="#191919"/>
  <path id="Path_239" data-name="Path 239" d="M70.948,12.692C65.639,16.28,58.163,18.374,48.742,18.3c-.822,0-1.645,0-2.542-.075V8.953c8.6.6,14.43-.9,17.944-3.514A11.971,11.971,0,0,0,67.209,2H79.322a22.186,22.186,0,0,1-8.374,10.692Z" transform="translate(-13.153 -2)" fill="#ff5f00"/>
</svg>
