<svg xmlns="http://www.w3.org/2000/svg" width="35.556" height="32" viewBox="0 0 35.556 32">
  <g id="Group_6296" data-name="Group 6296" transform="translate(-2 -3)">
    <path id="Path_4933" data-name="Path 4933" d="M37.239,10.877a1.777,1.777,0,0,0-1.461-.766h-24.3L9.429,5.187A3.544,3.544,0,0,0,6.148,3H2V6.556H6.148L14.581,26.8a1.778,1.778,0,0,0,1.641,1.093H30.444a1.782,1.782,0,0,0,1.666-1.152l5.333-14.222A1.778,1.778,0,0,0,37.239,10.877ZM29.212,24.333h-11.8L12.964,13.667H33.212Z" transform="translate(0 0)"/>
    <circle id="Ellipse_697" data-name="Ellipse 697" cx="2.667" cy="2.667" r="2.667" transform="translate(14.444 29.667)"/>
    <circle id="Ellipse_698" data-name="Ellipse 698" cx="2.667" cy="2.667" r="2.667" transform="translate(26.889 29.667)"/>
  </g>
</svg>
