<svg xmlns="http://www.w3.org/2000/svg" width="19.689" height="16" viewBox="0 0 19.689 16">
  <path id="Path_7621" data-name="Path 7621" d="M21.229,5.882a8.064,8.064,0,0,1-2.315.649,4.046,4.046,0,0,0,1.769-2.24,8.133,8.133,0,0,1-2.56.988A3.976,3.976,0,0,0,15.149,4a4.033,4.033,0,0,0-4.019,4.038,4.2,4.2,0,0,0,.1.922,11.477,11.477,0,0,1-8.32-4.216,4.022,4.022,0,0,0,1.252,5.374,3.993,3.993,0,0,1-1.835-.471v.028a4.041,4.041,0,0,0,3.238,3.962,3.959,3.959,0,0,1-1.816.066,4.028,4.028,0,0,0,3.765,2.8A8.02,8.02,0,0,1,2.5,18.24a8.209,8.209,0,0,1-.96-.056A11.43,11.43,0,0,0,7.733,20,11.422,11.422,0,0,0,19.225,8.508c0-.179,0-.348-.009-.527A8.067,8.067,0,0,0,21.229,5.882Z" transform="translate(-1.54 -4)" fill="#222541"/>
</svg>
